<svg width="36" height="29" viewBox="0 0 36 29" fill="none" xmlns="http://www.w3.org/2000/svg">
<path d="M2.16678 2.34412L4.19333 0.333235L30.6668 26.8067L28.6559 28.8332L23.7792 23.9565C21.9583 24.5585 20.0269 24.875 18 24.875C10.0833 24.875 3.32237 19.9507 0.583252 13C1.67597 10.2133 3.41752 7.75919 5.63421 5.81177L2.16678 2.34412ZM18 8.25C20.6235 8.25 22.75 10.3765 22.75 13C22.75 13.554 22.6549 14.0924 22.481 14.5832L16.4168 8.51904C16.9076 8.34507 17.446 8.25 18 8.25ZM18 1.125C25.9168 1.125 32.6777 6.04927 35.4168 13C34.1183 16.2935 31.9175 19.1433 29.0833 21.2174L26.8349 18.9535C28.9885 17.465 30.7616 15.4382 31.965 13C29.3525 7.68 23.9535 4.29177 18 4.29177C16.2741 4.29177 14.5802 4.57677 12.9966 5.08323L10.5584 2.66073C12.8384 1.67897 15.356 1.125 18 1.125ZM4.03502 13C6.64752 18.32 12.0466 21.7082 18 21.7082C19.0924 21.7082 20.1692 21.5975 21.1668 21.3757L17.5568 17.75C15.2925 17.5125 13.4874 15.7075 13.25 13.4433L7.86656 8.04419C6.29928 9.38993 4.98502 11.0683 4.03502 13Z" fill="#B0AAAA"/>
</svg>
